<svg version="1.1" viewBox="0.0 0.0 960.0 540.0" fill="none" stroke="none" stroke-linecap="square" stroke-miterlimit="10" xmlns:xlink="http://www.w3.org/1999/xlink" xmlns="http://www.w3.org/2000/svg"><clipPath id="p.0"><path d="m0 0l960.0 0l0 540.0l-960.0 0l0 -540.0z" clip-rule="nonzero"/></clipPath><g clip-path="url(#p.0)"><path fill="#000000" fill-opacity="0.0" d="m0 0l960.0 0l0 540.0l-960.0 0z" fill-rule="evenodd"/><path fill="#212529" d="m-67.96768 530.9993c35.0 -7.0 124.666664 -65.00003 178.0 -66.00003c53.33333 -1.0 98.33333 54.00003 142.0 60.00003c43.666656 6.0 86.0 -24.75003 120.0 -24.00003c34.0 0.75 50.0 31.50003 84.0 28.50003c34.0 -3.0 82.99997 -42.00003 119.99997 -46.50003c37.0 -4.5 70.0 25.0 102.0 19.5c32.0 -5.5 53.333374 -52.5 90.0 -52.5c36.666687 0 95.0 54.75 130.0 52.5c35.0 -2.25 44.333374 -11.0 80.0 -66.0c35.666687 -55.0 123.66669 -176.5 134.00006 -264.0c10.333252 -87.50001 153.33325 -215.25 -72.0 -261.0c-225.33337 -45.749992 -1050.0 -76.99999 -1280.0 -13.5c-230.0 63.500004 -123.33334 293.0 -100.0 394.5c23.333344 101.5 194.66667 174.75 240.0 214.5c45.333332 39.75003 -3.0 31.00003 32.0 24.00003z" fill-rule="evenodd"/></g></svg>