<svg class="wave_img unselectible" version="1.1" viewBox="0.0 0.0 960.0 113.38582677165354" fill="none" stroke="none" stroke-linecap="square" stroke-miterlimit="10" xmlns:xlink="http://www.w3.org/1999/xlink" xmlns="http://www.w3.org/2000/svg">
    <clipPath id="p.0">
        <path d="m0 0l960.0 0l0 113.385826l-960.0 0l0 -113.385826z" clip-rule="nonzero" />
    </clipPath>
    <g clip-path="url(#p.0)">
        <path fill="#000000" fill-opacity="0.0" d="m0 0l960.0 0l0 113.385826l-960.0 0z" fill-rule="evenodd" />
        <path fill="#343a40" d="m-19.852198 2.2197802c35.0 7.0 124.666664 65.0 178.0 66.0c53.333344 1.0 98.33334 -54.0 142.0 -60.0c43.666687 -6.0 86.0 24.75 120.0 24.0c34.0 -0.75 50.0 -31.5 84.0 -28.5c34.00003 3.0000002 83.00003 42.0 120.00003 46.5c37.0 4.5 70.0 -25.0 102.0 -19.5c32.0 5.5 53.333313 52.5 90.0 52.5c36.666626 0 95.0 -54.75 130.0 -52.5c35.0 2.25 44.333313 11.0 80.0 66.0c35.666626 55.000008 123.666626 176.5 134.0 264.0c10.333252 87.5 153.33325 215.25 -72.0 261.0c-225.33337 45.75 -1050.0 77.0 -1280.0 13.5c-230.0 -63.5 -123.33331 -293.0 -100.0 -394.5c23.333344 -101.5 194.66667 -174.75 240.0 -214.5c45.333336 -39.75 -3.0 -31.0 32.0 -24.0z" fill-rule="evenodd" />
    </g>
</svg>